<?xml version="1.0" encoding="utf-8"?>
<!-- Generator: Adobe Illustrator 21.1.0, SVG Export Plug-In . SVG Version: 6.00 Build 0)  -->
<svg version="1.1" id="Layer_1" xmlns="http://www.w3.org/2000/svg" xmlns:xlink="http://www.w3.org/1999/xlink" x="0px" y="0px"
	 viewBox="0 0 1024 1024" style="enable-background:new 0 0 1024 1024;" xml:space="preserve">
<style type="text/css">
	.st0{fill:#FFFFFF;}
</style>
<g>
	<g>
		<path class="st0" d="M314.1,284.9l18-2.3c12.8-1.6,20.8,3.5,23.9,15.4l0.8,6.4c1.7,13.6-8.6,37.4-31.1,71.6l-7.7,1
			c-1.3,0.2-2.8-0.9-4.6-3.2c5.6-13.2,12.5-24.1,20.8-32.8c7-18.9,10.2-31,9.5-36.4l-1-7.7c-4-5.7-9.9-8-17.8-7
			c-25.5,3.3-53.9,15.2-85.4,35.9c-23,15.3-48.6,39.4-77.1,72.4c-32.3,42.3-57.9,83.5-76.9,123.5c-12.9,29.6-21.6,56.3-26.2,80.2
			c-1.4,16.5-1.9,29.2-1.7,38.1c4.1,32.1,21.3,51.2,51.6,57.2l9.1-1.2c40.7-5.2,100.1-47.6,178.3-127.2c3.7-5.7,7.7-8.8,11.9-9.3
			l6.6,0.4l0.7,5.2c-2.9,1.9-18.3,17.4-46.3,46.4c-60,51.8-100,79.6-119.9,83.3c-1.8,2.7-12.8,5.8-32.9,9.5
			c-30,3.8-52.3-10.7-67.1-43.7c-1.3-4.4-2.2-8.7-2.7-12.7L45.9,638c-6.8-53.4,25.5-130.7,96.9-232c34-41.5,62.3-69,84.8-82.7
			C260,300.9,288.8,288.1,314.1,284.9z"/>
		<path class="st0" d="M325.6,545.3c4.5-0.6,8,3.3,10.6,11.7c0.1,0.6-0.4,6.8-1.4,18.5c6.8-3.4,14.2-10,22.1-19.7
			c1.5-1.2,3.2-1.9,5-2.1c1.9,0.7,3.3,1,4.1,0.9l0.3,2.3c-10.1,15.3-22.1,23.9-35.9,25.6c0.4,3.2-2.6,7.5-8.9,12.7l-11.6,1.5
			c-3.5-1-5.6-3.7-6.1-8.1l-0.2-1.4c-1.9-15,2.9-28.2,14.5-39.6L325.6,545.3z M313.4,573l0.4,13l0.5,3.7l1.2-0.2
			c3-2,4.8-4.8,5.4-8.5C320.5,581.1,318,578.4,313.4,573z M324,563.8l0.6,5l1.2-0.2l-0.6-5L324,563.8z M324.4,557.2l0.6,5l1.4-0.2
			l-0.6-5L324.4,557.2z"/>
		<path class="st0" d="M438,297.9l2.7-0.3c2.5-0.3,4,1.2,4.4,4.5c-2.7,13.3-9.6,31.1-20.7,53.6c0.2,1.9-5.2,20-16.5,54.3
			c-32.1,104-47.2,165.6-45.5,184.8c0.9,1.7,1.5,2.9,1.5,3.6l1.4-0.2c4.4-0.6,17.1-17,37.9-49.3c1.6-1,3.3-1.7,5.2-1.9l1.1-0.1
			c1.8,0.1,2.8,0.9,3,2.3l0.3,2.7c-18.2,34.4-35,52.5-50.3,54.5c-6.1,0.8-9.5-1.8-10.2-7.6l-0.7-5.4c-3-23.2,23.7-121,80-293.5
			L438,297.9z"/>
		<path class="st0" d="M425,528.1l2.3-0.3c7.1-0.2,11,2.4,11.7,7.8c0.6,4.6-8.2,10.9-26.4,18.8c-3.1,9.8-4.5,16.1-4.1,18.8l1.2-0.2
			c10.3-2,23.3-12,39.2-29.8l4.1-0.5c1.6,0,2.5,0.8,2.7,2.4l0.3,2.5c-14.9,19.3-28.8,29.8-41.7,31.4l-7.5,1
			c-6.1,0.8-9.4-1.3-10.1-6.3c-0.6-4.6,0.9-10.1,4.4-16.3l-1.6-2.5l-0.3-2.5c1.8-0.2,7.4-7,17-20.3L425,528.1z M421.5,541.6l1.1-0.1
			l4.7-5.9C423.5,537.7,421.6,539.7,421.5,541.6z"/>
		<path class="st0" d="M742.2,247.6l1.3-0.2c8.7,0,13.5,3.7,14.5,11.2l0.5,3.7c3.3,26.2-13.4,95.4-50.3,207.7
			c-41.3,127.3-58.7,216-52.3,266.4l0.8,6.4l3.1,12.7l6.1-3.5c1.5,0.8,3.3,1,5.2,0.8l0.5,3.7c-1.4,4.5-5.4,7.2-12,8.1
			c-8.6,1.1-13.9-6.9-16.1-24.1c-7.7-60.2,15.8-169.4,70.6-327.6c12.9-44.6,22-78.8,27.3-102.7c3.7-12.8,5.7-27.9,6-45.2
			c-2.3-7.4-4.5-11-6.6-10.8c-19.6,12.1-46.4,48.1-80.3,108.2l-86.4,159.7c-7.5,12.4-13.7,19-18.5,19.6l-1.2,0.2
			c-6.9,0.2-10.6-2.4-11.3-7.8c-1-8.2,0.5-53.2,4.7-135c-0.1-8.7-0.5-15.2-1-19.5c-1.2-1.7-1.8-3-2-3.9
			c-9.4,12.8-21.2,39.6-35.4,80.5c-31.5,92.5-53.8,152.3-67,179.4c-4.5,1.4-7.9,2.3-10,2.5c-3.7-0.7-5.7-1.8-5.8-3.1l-0.3-2.7
			c-2.8-21.9,11.7-92.9,43.5-213c-4.2,0.5-7.3,0-9.4-1.5c2.7-7.5,8-13.3,15.9-17.6l7.9-1l1.9,5c-19.8,71.8-35.3,141.2-46.5,208.3
			l1.2-0.2c42.5-123.3,72.4-202.4,89.7-237.2c5.5-6,9.9-9.2,13.1-9.7l2.7-0.3c7.7-1,12.4,4.5,13.9,16.5c0.6,19.3-1,64.7-4.9,136.3
			c-0.1,5,0,8.5,0.3,10.7c14.7-21.8,42.3-71.5,82.7-149.1c19.3-33.8,33.6-57.8,43-72C704,269.9,724.5,249.9,742.2,247.6z"/>
		<path class="st0" d="M738,492.6c4.5-0.6,8,3.3,10.6,11.7c0.1,0.6-0.4,6.8-1.4,18.5c6.8-3.4,14.2-10,22.1-19.7
			c1.5-1.2,3.2-1.9,5-2.1c1.9,0.7,3.3,1,4.1,0.9l0.3,2.3c-10.1,15.3-22.1,23.9-35.9,25.6c0.4,3.2-2.6,7.5-8.9,12.7l-11.6,1.5
			c-3.5-1-5.6-3.7-6.1-8.1l-0.2-1.4c-1.9-15,2.9-28.2,14.5-39.6L738,492.6z M725.7,520.3l0.4,13l0.5,3.7l1.2-0.2
			c3-2,4.8-4.8,5.4-8.5C732.8,528.4,730.3,525.7,725.7,520.3z M736.4,511.1l0.6,5l1.2-0.2l-0.6-5L736.4,511.1z M736.8,504.5l0.6,5
			l1.4-0.2l-0.6-5L736.8,504.5z"/>
		<path class="st0" d="M800,478.7c4.3-0.3,6.6,0.3,6.8,1.9c0.8,6.4,0.2,18.7-1.8,36.7l0.2,1.4l1.2-0.2c5.3-17.2,9.8-26.1,13.5-26.6
			l4.1-0.5c3.8,3.9,6.5,5.7,8.3,5.5c0.5-0.1,5.4-2.4,14.9-7l5.1,0.4l0.7,5.4c-4.9,5.1-10.9,8.6-17.9,10.4l-11.8,0.1
			c-5.5,16.2-12,24.7-19.2,25.7l-5.2,0.7c-1.2,0.2-2.6-0.9-4.2-3.3l-1-7.9l0.4-7.9l-0.2-1.4l-1.4,0.2c-4.2,17.9-9.6,27.3-16,28.2
			l-3.9,0.5c-1.7-0.1-3.7-2.1-6-5.8c0.8-27.8,3.3-42,7.6-42.5l4.1-0.5c1.5-0.2,2.5,1,2.8,3.5c0.3,2.3-0.2,8.4-1.5,18.3l0.2,1.4
			l1.4-0.2C787.1,491.7,793.4,479.5,800,478.7z"/>
		<path class="st0" d="M691.7,567.6l7.7-1c57.5-7.3,110.9-8.1,160.2-2.2l1.8,2.5l0.2,1.2c0.3,2.5-4.3,4.4-13.8,5.6
			c-6.4-7.6-52.2-8.3-137.4-2l-21.6,2.8c-48.1,6.1-120,21.9-215.9,47.2c-1.9-0.6-3.3-0.8-4.3-0.7l-0.3-2.5
			c-0.5-3.7,50.1-16.7,151.7-39C644.7,574.5,668.6,570.5,691.7,567.6z"/>
		<path class="st0" d="M871.9,470.9l2.3-0.3c7.1-0.2,11,2.4,11.7,7.8c0.6,4.6-8.2,10.9-26.4,18.8c-3.1,9.8-4.5,16.1-4.1,18.8
			l1.2-0.2c10.3-2,23.3-12,39.2-29.8l4.1-0.5c1.6,0,2.5,0.8,2.7,2.4l0.3,2.5c-14.9,19.3-28.8,29.8-41.7,31.4l-7.5,1
			c-6.1,0.8-9.4-1.3-10.1-6.3c-0.6-4.6,0.9-10.1,4.4-16.3l-1.6-2.5l-0.3-2.5c1.8-0.2,7.4-7,17-20.3L871.9,470.9z M868.4,484.4
			l1.1-0.1l4.7-5.9C870.5,480.6,868.5,482.6,868.4,484.4z"/>
		<path class="st0" d="M901.8,460.1l3.3,0c7.7-1,8.6-0.5,9.7,8.1c-1.8,6-2.2,4.6-1.9,6.7c5.4,2.7,8.7,4,9.7,3.8l0.7,5.2
			c0.2,1.8-0.6,6.2-2.5,13.4l1.4-0.2c15.6-14.2,24.6-21.5,27.1-21.8l1.2-0.2c1.8,0,2.8,0.7,3,2.2l0.3,2.7
			c-12.6,15.5-23.4,23.8-32.2,25l-2.3,0.3c-6.1,0.8-9.4-1.4-10.1-6.5c1.4-8.5,2.1-13.4,1.9-14.8l-2.7-0.9
			c-12.6,30.4-21.4,53.7-26.4,69.9l-7.7,1c-1.7,0.2-2.6-0.5-2.8-2c5.4-19.9,15-46.4,27.4-76.6c-2.5,0.3-2.1,2.4-4.8-5.2l-0.5-4
			C896.3,460.6,897.2,460.7,901.8,460.1z"/>
		<path class="st0" d="M982.6,461.1c1.8-0.1,2.8,0.6,3,2l0.2,1.4L913.7,718c1.7-0.2,2.7,0.9,3,3.4c-1.8,5.7-5.1,10.9-9.8,15.6
			l-5,0.6c-1.8,0.2-2.8-1-3.2-3.6c31.2-111,54-190.9,68.5-239.8l-1.2,0.2c-3.8,6.9-9.2,12.8-16.1,17.6l-10.2,1.3
			c-1.2,0.2-2.7-1.4-4.6-4.7c3.3-16.9,7.2-27.8,11.6-32.7l6.4-0.8l0.3,2.7l-6.9,27c4.3-3.4,15-17.9,32.2-43.3L982.6,461.1z"/>
	</g>
	<g>
		<path class="st0" d="M38.3,727.9l9.9-1.3c1.2-0.2,2.5-0.2,3.8-0.1c1.3,0.1,2.6,0.4,3.8,1c1.2,0.5,2.2,1.4,3,2.5
			c0.8,1.1,1.4,2.5,1.6,4.3c0.2,1.6,0.1,2.9-0.3,4.1c-0.4,1.2-1.1,2.2-1.9,3.1c-0.9,0.9-1.9,1.5-3.1,2.1c-1.2,0.5-2.5,0.9-3.9,1
			l-7.5,1l2.1,16.4l-3.2,0.4L38.3,727.9z M43.4,742.7l7.3-0.9c0.9-0.1,1.8-0.3,2.6-0.7c0.8-0.3,1.6-0.8,2.2-1.3
			c0.6-0.6,1.1-1.3,1.4-2.1c0.3-0.8,0.4-1.8,0.3-3c-0.1-1.1-0.5-2-1-2.7c-0.5-0.7-1.2-1.3-2-1.7c-0.8-0.4-1.6-0.7-2.6-0.8
			c-0.9-0.1-1.9-0.1-2.8,0l-7.1,0.9L43.4,742.7z"/>
		<path class="st0" d="M87.1,721.7l3.2-0.4l1.9,15.2l19.3-2.5l-1.9-15.2l3.2-0.4l4.4,34.5l-3.2,0.4l-2.1-16.4l-19.3,2.5l2.1,16.4
			l-3.2,0.4L87.1,721.7z"/>
		<path class="st0" d="M143.2,732c-0.3-2.6-0.2-5.1,0.4-7.4c0.6-2.3,1.6-4.4,2.9-6.2c1.4-1.8,3.1-3.3,5.1-4.5c2.1-1.2,4.4-2,7.1-2.3
			c2.6-0.3,5.1-0.2,7.4,0.4c2.3,0.6,4.3,1.6,6.1,3.1c1.8,1.4,3.2,3.2,4.4,5.3c1.2,2.1,1.9,4.5,2.2,7.1c0.3,2.6,0.2,5.1-0.4,7.4
			c-0.6,2.3-1.6,4.4-2.9,6.2c-1.4,1.8-3.1,3.3-5.1,4.5s-4.4,1.9-7.1,2.3c-2.6,0.3-5.1,0.2-7.4-0.4c-2.3-0.6-4.3-1.6-6.1-3
			c-1.8-1.4-3.2-3.2-4.4-5.3C144.3,737,143.5,734.7,143.2,732z M146.4,731.6c0.3,2.1,0.9,4.1,1.8,5.9c0.9,1.8,2.1,3.2,3.5,4.4
			c1.4,1.2,3.1,2.1,5,2.6c1.9,0.5,4,0.7,6.2,0.4c2.2-0.3,4.2-0.9,5.9-1.9c1.7-1,3.1-2.3,4.2-3.8c1.1-1.5,1.9-3.3,2.3-5.2
			c0.4-1.9,0.5-4,0.3-6.1s-0.9-4.1-1.8-5.9c-0.9-1.8-2.1-3.2-3.5-4.4c-1.4-1.2-3.1-2.1-5-2.6c-1.9-0.5-4-0.7-6.2-0.4
			c-2.2,0.3-4.2,0.9-5.9,1.9c-1.7,1-3.1,2.3-4.2,3.8c-1.1,1.5-1.9,3.3-2.3,5.2C146.2,727.4,146.1,729.5,146.4,731.6z"/>
		<path class="st0" d="M212.8,708.6l-11.8,1.5l-0.4-2.9l26.8-3.4l0.4,2.9l-11.8,1.5l4,31.6l-3.2,0.4L212.8,708.6z"/>
		<path class="st0" d="M253.6,717.9c-0.3-2.6-0.2-5.1,0.4-7.4c0.6-2.3,1.6-4.4,2.9-6.2c1.4-1.8,3.1-3.3,5.1-4.5
			c2.1-1.2,4.4-2,7.1-2.3c2.6-0.3,5.1-0.2,7.4,0.4c2.3,0.6,4.3,1.6,6.1,3.1c1.8,1.4,3.2,3.2,4.4,5.3c1.2,2.1,1.9,4.5,2.2,7.1
			c0.3,2.6,0.2,5.1-0.4,7.4c-0.6,2.3-1.6,4.4-2.9,6.2c-1.4,1.8-3.1,3.3-5.1,4.5c-2.1,1.2-4.4,1.9-7.1,2.3c-2.6,0.3-5.1,0.2-7.4-0.4
			c-2.3-0.6-4.3-1.6-6.1-3c-1.8-1.4-3.2-3.2-4.4-5.3C254.7,722.9,254,720.5,253.6,717.9z M256.9,717.5c0.3,2.1,0.9,4.1,1.8,5.9
			c0.9,1.8,2.1,3.2,3.5,4.4c1.4,1.2,3.1,2.1,5,2.6c1.9,0.5,4,0.7,6.2,0.4c2.2-0.3,4.2-0.9,5.9-1.9c1.7-1,3.1-2.3,4.2-3.8
			c1.1-1.5,1.9-3.3,2.3-5.2c0.4-1.9,0.5-4,0.3-6.1c-0.3-2.1-0.9-4.1-1.8-5.9c-0.9-1.8-2.1-3.2-3.5-4.4s-3.1-2.1-5-2.6
			c-1.9-0.5-4-0.7-6.2-0.4c-2.2,0.3-4.2,0.9-5.9,1.9c-1.7,1-3.1,2.3-4.2,3.8c-1.1,1.5-1.9,3.3-2.3,5.2
			C256.7,713.3,256.6,715.4,256.9,717.5z"/>
		<path class="st0" d="M347.8,721.1c-1.9,1.4-3.9,2.5-5.9,3.2c-2.1,0.7-4.3,1.3-6.5,1.5c-2.6,0.3-5.1,0.2-7.4-0.4
			c-2.3-0.6-4.3-1.6-6.1-3c-1.8-1.4-3.2-3.2-4.4-5.3c-1.2-2.1-1.9-4.5-2.2-7.1c-0.3-2.6-0.2-5.1,0.4-7.4c0.6-2.3,1.6-4.4,2.9-6.2
			c1.4-1.8,3.1-3.3,5.1-4.5c2.1-1.2,4.4-2,7.1-2.3c5.1-0.7,9.5,0.4,13,3.2l-2,2.7c-0.6-0.6-1.3-1-2.1-1.5c-0.8-0.4-1.7-0.8-2.7-1
			c-0.9-0.3-1.9-0.4-2.9-0.5c-1-0.1-2-0.1-2.9,0.1c-2.2,0.3-4.2,0.9-5.9,1.9c-1.7,1-3.1,2.3-4.2,3.8c-1.1,1.5-1.9,3.3-2.3,5.2
			c-0.4,1.9-0.5,4-0.3,6.1c0.3,2.1,0.9,4.1,1.8,5.9c0.9,1.8,2.1,3.2,3.5,4.4c1.4,1.2,3.1,2.1,5,2.6s4,0.7,6.2,0.4
			c1.9-0.2,3.6-0.6,5.2-1.1c1.6-0.5,3-1.2,4.2-2.2l-1.5-11.6l-8.3,1.1l-0.4-2.9l11.5-1.5L347.8,721.1z"/>
		<path class="st0" d="M374.1,685l9.1-1.2c0.5-0.1,1.1-0.1,1.9-0.2c0.8-0.1,1.6-0.1,2.6,0c0.9,0,1.9,0.2,2.9,0.4
			c1,0.2,1.9,0.6,2.7,1.2c0.8,0.6,1.6,1.4,2.2,2.3c0.6,1,1,2.2,1.2,3.7c0.2,1.7,0.1,3.1-0.3,4.2c-0.4,1.1-1,2.1-1.8,2.9
			c-0.8,0.8-1.7,1.4-2.7,1.8c-1,0.5-2,0.8-2.9,1.1l12.1,15.3l-3.7,0.5l-11.8-15.1l-6,0.8l2.1,16.4l-3.2,0.4L374.1,685z M379.2,699.8
			l6.8-0.9c1.7-0.2,3-0.6,4-1.2c1-0.6,1.8-1.2,2.3-1.9c0.5-0.7,0.8-1.4,0.9-2.1c0.1-0.7,0.1-1.4,0.1-2c-0.1-0.6-0.3-1.2-0.6-1.9
			c-0.3-0.7-0.8-1.3-1.4-1.8c-0.7-0.5-1.5-1-2.7-1.2c-1.1-0.3-2.5-0.3-4.2-0.1l-6.8,0.9L379.2,699.8z"/>
		<path class="st0" d="M434.4,677.3l3.3-0.4l18.9,32.6l-3.6,0.5l-4.9-8.7l-18.3,2.3l-2.7,9.7l-3.4,0.4L434.4,677.3z M436.4,680.6
			l-5.6,19.9l15.8-2L436.4,680.6z"/>
		<path class="st0" d="M478.2,671.7l9.9-1.3c1.2-0.2,2.5-0.2,3.8-0.1c1.4,0.1,2.6,0.4,3.8,1c1.2,0.5,2.2,1.4,3,2.5
			c0.8,1.1,1.4,2.5,1.6,4.3c0.2,1.6,0.1,2.9-0.3,4.1c-0.4,1.2-1.1,2.2-1.9,3.1c-0.9,0.9-1.9,1.5-3.1,2.1c-1.2,0.5-2.5,0.9-3.9,1
			l-7.5,1l2.1,16.4l-3.2,0.4L478.2,671.7z M483.3,686.5l7.3-0.9c0.9-0.1,1.8-0.3,2.6-0.7c0.8-0.3,1.6-0.8,2.2-1.3
			c0.6-0.6,1.1-1.3,1.4-2.1c0.3-0.8,0.4-1.8,0.3-3c-0.1-1.1-0.5-2-1-2.7c-0.5-0.7-1.2-1.3-1.9-1.7c-0.8-0.4-1.6-0.7-2.6-0.8
			c-0.9-0.1-1.9-0.1-2.8,0l-7.1,0.9L483.3,686.5z"/>
		<path class="st0" d="M527.1,665.5l3.2-0.4l1.9,15.2l19.3-2.5l-1.9-15.2l3.2-0.4l4.4,34.5l-3.2,0.4l-2.1-16.4l-19.3,2.5l2.1,16.4
			l-3.2,0.4L527.1,665.5z"/>
		<path class="st0" d="M593.3,676.9l-15.2-18l3.8-0.5l12.5,15l8.6-17.7l3.6-0.5l-10.2,21.2l1.9,14.9l-3.2,0.4L593.3,676.9z"/>
		<path class="st0" d="M40.9,787l3.5-0.4l15,28.8l7.3-31.7l3.4-0.4l-8.7,36.2l-3.2,0.4L40.9,787z"/>
		<path class="st0" d="M98.2,779.6l3.2-0.4l4.4,34.5l-3.2,0.4L98.2,779.6z"/>
		<path class="st0" d="M134.1,775.1l10.7-1.4c3-0.4,5.6-0.3,7.7,0.1c2.2,0.5,4,1.2,5.5,2.1c1.5,1,2.8,2.1,3.7,3.4
			c1,1.3,1.7,2.5,2.3,3.7c0.5,1.2,0.9,2.3,1.1,3.3c0.2,1,0.4,1.7,0.4,2.1c0.1,0.4,0.1,1.2,0.1,2.2c0,1-0.1,2.2-0.3,3.5
			c-0.2,1.3-0.6,2.7-1.2,4.2c-0.6,1.5-1.5,2.9-2.8,4.2c-1.2,1.3-2.8,2.5-4.8,3.5c-2,1-4.5,1.7-7.5,2.1l-10.7,1.4L134.1,775.1z
			 M141.3,806.2l6.6-0.8c2.3-0.3,4.4-0.8,6.3-1.7c1.9-0.8,3.5-1.9,4.8-3.3c1.3-1.4,2.3-3,2.9-4.9c0.6-1.9,0.8-4.1,0.4-6.6
			c-0.3-2.5-1-4.5-2.1-6.2c-1.1-1.7-2.4-3-4-4c-1.6-1-3.4-1.6-5.5-1.9c-2.1-0.3-4.2-0.3-6.5,0l-6.6,0.8L141.3,806.2z"/>
		<path class="st0" d="M194.2,767.4l21.1-2.7l0.4,2.9l-17.9,2.3l1.6,12.3l16.8-2.1l0.4,2.9l-16.8,2.1l1.7,13.4l18.7-2.4l0.4,2.9
			l-21.9,2.8L194.2,767.4z"/>
		<path class="st0" d="M246.7,778.2c-0.3-2.6-0.2-5.1,0.4-7.4c0.6-2.3,1.6-4.4,2.9-6.2c1.4-1.8,3.1-3.3,5.1-4.5
			c2.1-1.2,4.4-2,7.1-2.3c2.6-0.3,5.1-0.2,7.4,0.4c2.3,0.6,4.3,1.6,6.1,3.1c1.8,1.4,3.2,3.2,4.4,5.3c1.2,2.1,1.9,4.5,2.2,7.1
			c0.3,2.6,0.2,5.1-0.4,7.4c-0.6,2.3-1.6,4.4-2.9,6.2c-1.4,1.8-3.1,3.3-5.1,4.5c-2.1,1.2-4.4,1.9-7.1,2.3c-2.6,0.3-5.1,0.2-7.4-0.4
			c-2.3-0.6-4.3-1.6-6.1-3c-1.8-1.4-3.2-3.2-4.4-5.3C247.7,783.2,247,780.8,246.7,778.2z M249.9,777.8c0.3,2.1,0.9,4.1,1.8,5.9
			s2.1,3.2,3.5,4.4c1.4,1.2,3.1,2.1,5,2.6c1.9,0.5,4,0.7,6.2,0.4c2.2-0.3,4.2-0.9,5.9-1.9c1.7-1,3.1-2.3,4.2-3.8
			c1.1-1.5,1.9-3.3,2.3-5.2c0.4-1.9,0.5-4,0.3-6.1c-0.3-2.1-0.9-4.1-1.8-5.9c-0.9-1.8-2.1-3.2-3.5-4.4c-1.4-1.2-3.1-2.1-5-2.6
			c-1.9-0.5-4-0.7-6.2-0.4c-2.2,0.3-4.2,0.9-5.9,1.9c-1.7,1-3.1,2.3-4.2,3.8c-1.1,1.5-1.9,3.3-2.3,5.2
			C249.7,773.6,249.6,775.6,249.9,777.8z"/>
		<path class="st0" d="M343.5,781.1c-1.9,1.4-3.9,2.5-5.9,3.2c-2.1,0.7-4.3,1.3-6.5,1.5c-2.6,0.3-5.1,0.2-7.4-0.4
			c-2.3-0.6-4.3-1.6-6.1-3c-1.8-1.4-3.2-3.2-4.4-5.3c-1.2-2.1-1.9-4.5-2.2-7.1c-0.3-2.6-0.2-5.1,0.4-7.4c0.6-2.3,1.6-4.4,2.9-6.2
			c1.4-1.8,3.1-3.3,5.1-4.5c2.1-1.2,4.4-2,7.1-2.3c5.1-0.7,9.5,0.4,13,3.2l-2,2.7c-0.6-0.5-1.3-1-2.1-1.5c-0.8-0.4-1.7-0.8-2.7-1
			c-0.9-0.3-1.9-0.4-2.9-0.5c-1-0.1-2-0.1-2.9,0.1c-2.2,0.3-4.2,0.9-5.9,1.9c-1.7,1-3.1,2.3-4.2,3.8c-1.1,1.5-1.9,3.3-2.3,5.2
			c-0.4,1.9-0.5,4-0.3,6.1c0.3,2.1,0.9,4.1,1.8,5.9c0.9,1.8,2.1,3.2,3.5,4.4c1.4,1.2,3.1,2.1,5,2.6c1.9,0.5,4,0.7,6.2,0.4
			c1.9-0.2,3.6-0.6,5.2-1.1c1.6-0.5,3-1.2,4.2-2.2l-1.5-11.6l-8.3,1.1l-0.4-2.9l11.5-1.5L343.5,781.1z"/>
		<path class="st0" d="M372.4,744.6l9.1-1.2c0.5-0.1,1.1-0.1,1.9-0.2c0.8-0.1,1.6-0.1,2.6,0c0.9,0,1.9,0.2,2.9,0.4
			c1,0.2,1.9,0.6,2.7,1.2c0.8,0.6,1.6,1.4,2.2,2.3c0.6,1,1,2.2,1.2,3.7c0.2,1.7,0.1,3.1-0.3,4.2c-0.4,1.1-1,2.1-1.8,2.9
			c-0.8,0.8-1.7,1.4-2.7,1.8c-1,0.5-2,0.8-2.9,1.1l12.1,15.3l-3.7,0.5l-11.8-15.1l-6,0.8l2.1,16.4l-3.2,0.4L372.4,744.6z
			 M377.6,759.4l6.8-0.9c1.7-0.2,3-0.6,4-1.2c1-0.6,1.8-1.2,2.3-1.9c0.5-0.7,0.8-1.4,0.9-2.1c0.1-0.7,0.1-1.4,0.1-2
			c-0.1-0.6-0.3-1.2-0.6-1.9c-0.3-0.7-0.8-1.3-1.4-1.8c-0.7-0.5-1.6-1-2.7-1.2c-1.1-0.3-2.5-0.3-4.2-0.1l-6.8,0.9L377.6,759.4z"/>
		<path class="st0" d="M435.5,736.5l3.3-0.4l18.9,32.6l-3.6,0.5l-4.9-8.7l-18.3,2.3l-2.7,9.7l-3.4,0.4L435.5,736.5z M437.4,739.9
			l-5.6,19.9l15.8-2L437.4,739.9z"/>
		<path class="st0" d="M481.9,730.6l9.9-1.3c1.2-0.2,2.5-0.2,3.8-0.1c1.4,0.1,2.6,0.4,3.8,1c1.2,0.5,2.2,1.4,3,2.5
			c0.8,1.1,1.4,2.5,1.6,4.3c0.2,1.6,0.1,2.9-0.3,4.2c-0.4,1.2-1.1,2.2-1.9,3.1c-0.9,0.9-1.9,1.5-3.1,2.1c-1.2,0.5-2.5,0.9-3.9,1
			l-7.5,1l2.1,16.4l-3.2,0.4L481.9,730.6z M487,745.4l7.3-0.9c0.9-0.1,1.8-0.3,2.6-0.7c0.9-0.3,1.6-0.8,2.2-1.3
			c0.6-0.6,1.1-1.3,1.4-2.1c0.3-0.8,0.4-1.8,0.3-3c-0.1-1.1-0.5-2-1-2.7c-0.5-0.7-1.2-1.3-1.9-1.7c-0.8-0.4-1.6-0.7-2.6-0.8
			c-0.9-0.1-1.9-0.1-2.8,0l-7.1,0.9L487,745.4z"/>
		<path class="st0" d="M533.5,724l3.2-0.4l1.9,15.2l19.3-2.5l-1.9-15.2l3.2-0.4l4.4,34.5l-3.2,0.4l-2.1-16.4l-19.3,2.5l2.1,16.4
			l-3.2,0.4L533.5,724z"/>
		<path class="st0" d="M602.4,735.2l-15.2-18l3.8-0.5l12.5,15l8.6-17.7l3.6-0.5l-10.2,21.2l1.9,14.9l-3.2,0.4L602.4,735.2z"/>
	</g>
</g>
</svg>
