<!-- Generator: Adobe Illustrator 21.1.0, SVG Export Plug-In  -->
<svg version="1.1"
	 xmlns="http://www.w3.org/2000/svg" xmlns:xlink="http://www.w3.org/1999/xlink" xmlns:a="http://ns.adobe.com/AdobeSVGViewerExtensions/3.0/"
	 x="0px" y="0px" width="940.787px" height="517.3px" viewBox="0 0 940.787 517.3"
	 style="enable-background:new 0 0 940.787 517.3;" xml:space="preserve">
<defs>
</defs>
<g>
	<path d="M269.087,37.5l18-2.3c12.8-1.6,20.8,3.5,23.9,15.4l0.8,6.4c1.7,13.6-8.6,37.4-31.1,71.6l-7.7,1c-1.3,0.2-2.8-0.9-4.6-3.2
		c5.6-13.2,12.5-24.1,20.8-32.8c7-18.9,10.2-31,9.5-36.4l-1-7.7c-4-5.7-9.9-8-17.8-7c-25.5,3.3-53.9,15.2-85.4,35.9
		c-23,15.3-48.6,39.4-77.1,72.4c-32.3,42.3-57.9,83.5-76.9,123.5c-12.9,29.6-21.6,56.3-26.2,80.2c-1.4,16.5-1.9,29.2-1.7,38.1
		c4.1,32.1,21.3,51.2,51.6,57.2l9.1-1.2c40.7-5.2,100.1-47.6,178.3-127.2c3.7-5.7,7.7-8.8,11.9-9.3l6.6,0.4l0.7,5.2
		c-2.9,1.9-18.3,17.4-46.3,46.4c-60,51.8-100,79.6-119.9,83.3c-1.8,2.7-12.8,5.8-32.9,9.5c-30,3.8-52.3-10.7-67.1-43.7
		c-1.3-4.4-2.2-8.7-2.7-12.7l-1-9.9c-6.8-53.4,25.5-130.7,96.9-232c34-41.5,62.3-69,84.8-82.7
		C214.987,53.5,243.787,40.7,269.087,37.5z"/>
	<path d="M280.587,297.9c4.5-0.6,8,3.3,10.6,11.7c0.1,0.6-0.4,6.8-1.4,18.5c6.8-3.4,14.2-10,22.1-19.7c1.5-1.2,3.2-1.9,5-2.1
		c1.9,0.7,3.3,1,4.1,0.9l0.3,2.3c-10.1,15.3-22.1,23.9-35.9,25.6c0.4,3.2-2.6,7.5-8.9,12.7l-11.6,1.5c-3.5-1-5.6-3.7-6.1-8.1
		l-0.2-1.4c-1.9-15,2.9-28.2,14.5-39.6L280.587,297.9z M268.387,325.6l0.4,13l0.5,3.7l1.2-0.2c3-2,4.8-4.8,5.4-8.5
		C275.487,333.7,272.987,331,268.387,325.6z M278.987,316.4l0.6,5l1.2-0.2l-0.6-5L278.987,316.4z M279.387,309.8l0.6,5l1.4-0.2
		l-0.6-5L279.387,309.8z"/>
	<path d="M392.987,50.5l2.7-0.3c2.5-0.3,4,1.2,4.4,4.5c-2.7,13.3-9.6,31.1-20.7,53.6c0.2,1.9-5.2,20-16.5,54.3
		c-32.1,104-47.2,165.6-45.5,184.8c0.9,1.7,1.5,2.9,1.5,3.6l1.4-0.2c4.4-0.6,17.1-17,37.9-49.3c1.6-1,3.3-1.7,5.2-1.9l1.1-0.1
		c1.8,0.1,2.8,0.9,3,2.3l0.3,2.7c-18.2,34.4-35,52.5-50.3,54.5c-6.1,0.8-9.5-1.8-10.2-7.6l-0.7-5.4c-3-23.2,23.7-121,80-293.5
		L392.987,50.5z"/>
	<path d="M379.987,280.7l2.3-0.3c7.1-0.2,11,2.4,11.7,7.8c0.6,4.6-8.2,10.9-26.4,18.8c-3.1,9.8-4.5,16.1-4.1,18.8l1.2-0.2
		c10.3-2,23.3-12,39.2-29.8l4.1-0.5c1.6,0,2.5,0.8,2.7,2.4l0.3,2.5c-14.9,19.3-28.8,29.8-41.7,31.4l-7.5,1
		c-6.1,0.8-9.4-1.3-10.1-6.3c-0.6-4.6,0.9-10.1,4.4-16.3l-1.6-2.5l-0.3-2.5c1.8-0.2,7.4-7,17-20.3L379.987,280.7z M376.487,294.2
		l1.1-0.1l4.7-5.9C378.487,290.3,376.587,292.3,376.487,294.2z"/>
	<path d="M697.187,0.2l1.3-0.2c8.7,0,13.5,3.7,14.5,11.2l0.5,3.7c3.3,26.2-13.4,95.4-50.3,207.7c-41.3,127.3-58.7,216-52.3,266.4
		l0.8,6.4l3.1,12.7l6.1-3.5c1.5,0.8,3.3,1,5.2,0.8l0.5,3.7c-1.4,4.5-5.4,7.2-12,8.1c-8.6,1.1-13.9-6.9-16.1-24.1
		c-7.7-60.2,15.8-169.4,70.6-327.6c12.9-44.6,22-78.8,27.3-102.7c3.7-12.8,5.7-27.9,6-45.2c-2.3-7.4-4.5-11-6.6-10.8
		c-19.6,12.1-46.4,48.1-80.3,108.2l-86.4,159.7c-7.5,12.4-13.7,19-18.5,19.6l-1.2,0.2c-6.9,0.2-10.6-2.4-11.3-7.8
		c-1-8.2,0.5-53.2,4.7-135c-0.1-8.7-0.5-15.2-1-19.5c-1.2-1.7-1.8-3-2-3.9c-9.4,12.8-21.2,39.6-35.4,80.5
		c-31.5,92.5-53.8,152.3-67,179.4c-4.5,1.4-7.9,2.3-10,2.5c-3.7-0.7-5.7-1.8-5.8-3.1l-0.3-2.7c-2.8-21.9,11.7-92.9,43.5-213
		c-4.2,0.5-7.3,0-9.4-1.5c2.7-7.5,8-13.3,15.9-17.6l7.9-1l1.9,5c-19.8,71.8-35.3,141.2-46.5,208.3l1.2-0.2
		c42.5-123.3,72.4-202.4,89.7-237.2c5.5-6,9.9-9.2,13.1-9.7l2.7-0.3c7.7-1,12.4,4.5,13.9,16.5c0.6,19.3-1,64.7-4.9,136.3
		c-0.1,5,0,8.5,0.3,10.7c14.7-21.8,42.3-71.5,82.7-149.1c19.3-33.8,33.6-57.8,43-72C658.987,22.5,679.487,2.5,697.187,0.2z"/>
	<path d="M692.987,245.2c4.5-0.6,8,3.3,10.6,11.7c0.1,0.6-0.4,6.8-1.4,18.5c6.8-3.4,14.2-10,22.1-19.7c1.5-1.2,3.2-1.9,5-2.1
		c1.9,0.7,3.3,1,4.1,0.9l0.3,2.3c-10.1,15.3-22.1,23.9-35.9,25.6c0.4,3.2-2.6,7.5-8.9,12.7l-11.6,1.5c-3.5-1-5.6-3.7-6.1-8.1
		l-0.2-1.4c-1.9-15,2.9-28.2,14.5-39.6L692.987,245.2z M680.687,272.9l0.4,13l0.5,3.7l1.2-0.2c3-2,4.8-4.8,5.4-8.5
		C687.787,281,685.287,278.3,680.687,272.9z M691.387,263.7l0.6,5l1.2-0.2l-0.6-5L691.387,263.7z M691.787,257.1l0.6,5l1.4-0.2
		l-0.6-5L691.787,257.1z"/>
	<path d="M754.987,231.3c4.3-0.3,6.6,0.3,6.8,1.9c0.8,6.4,0.2,18.7-1.8,36.7l0.2,1.4l1.2-0.2c5.3-17.2,9.8-26.1,13.5-26.6l4.1-0.5
		c3.8,3.9,6.5,5.7,8.3,5.5c0.5-0.1,5.4-2.4,14.9-7l5.1,0.4l0.7,5.4c-4.9,5.1-10.9,8.6-17.9,10.4l-11.8,0.1
		c-5.5,16.2-12,24.7-19.2,25.7l-5.2,0.7c-1.2,0.2-2.6-0.9-4.2-3.3l-1-7.9l0.4-7.9l-0.2-1.4l-1.4,0.2c-4.2,17.9-9.6,27.3-16,28.2
		l-3.9,0.5c-1.7-0.1-3.7-2.1-6-5.8c0.8-27.8,3.3-42,7.6-42.5l4.1-0.5c1.5-0.2,2.5,1,2.8,3.5c0.3,2.3-0.2,8.4-1.5,18.3l0.2,1.4
		l1.4-0.2C742.087,244.3,748.387,232.1,754.987,231.3z"/>
	<path d="M646.687,320.2l7.7-1c57.5-7.3,110.9-8.1,160.2-2.2l1.8,2.5l0.2,1.2c0.3,2.5-4.3,4.4-13.8,5.6c-6.4-7.6-52.2-8.3-137.4-2
		l-21.6,2.8c-48.1,6.1-120,21.9-215.9,47.2c-1.9-0.6-3.3-0.8-4.3-0.7l-0.3-2.5c-0.5-3.7,50.1-16.7,151.7-39
		C599.687,327.1,623.587,323.1,646.687,320.2z"/>
	<path d="M826.887,223.5l2.3-0.3c7.1-0.2,11,2.4,11.7,7.8c0.6,4.6-8.2,10.9-26.4,18.8c-3.1,9.8-4.5,16.1-4.1,18.8l1.2-0.2
		c10.3-2,23.3-12,39.2-29.8l4.1-0.5c1.6,0,2.5,0.8,2.7,2.4l0.3,2.5c-14.9,19.3-28.8,29.8-41.7,31.4l-7.5,1
		c-6.1,0.8-9.4-1.3-10.1-6.3c-0.6-4.6,0.9-10.1,4.4-16.3l-1.6-2.5l-0.3-2.5c1.8-0.2,7.4-7,17-20.3L826.887,223.5z M823.387,237
		l1.1-0.1l4.7-5.9C825.487,233.2,823.487,235.2,823.387,237z"/>
	<path d="M856.787,212.7h3.3c7.7-1,8.6-0.5,9.7,8.1c-1.8,6-2.2,4.6-1.9,6.7c5.4,2.7,8.7,4,9.7,3.8l0.7,5.2c0.2,1.8-0.6,6.2-2.5,13.4
		l1.4-0.2c15.6-14.2,24.6-21.5,27.1-21.8l1.2-0.2c1.8,0,2.8,0.7,3,2.2l0.3,2.7c-12.6,15.5-23.4,23.8-32.2,25l-2.3,0.3
		c-6.1,0.8-9.4-1.4-10.1-6.5c1.4-8.5,2.1-13.4,1.9-14.8l-2.7-0.9c-12.6,30.4-21.4,53.7-26.4,69.9l-7.7,1c-1.7,0.2-2.6-0.5-2.8-2
		c5.4-19.9,15-46.4,27.4-76.6c-2.5,0.3-2.1,2.4-4.8-5.2l-0.5-4C851.287,213.2,852.187,213.3,856.787,212.7z"/>
	<path d="M937.587,213.7c1.8-0.1,2.8,0.6,3,2l0.2,1.4l-72.1,253.5c1.7-0.2,2.7,0.9,3,3.4c-1.8,5.7-5.1,10.9-9.8,15.6l-5,0.6
		c-1.8,0.2-2.8-1-3.2-3.6c31.2-111,54-190.9,68.5-239.8l-1.2,0.2c-3.8,6.9-9.2,12.8-16.1,17.6l-10.2,1.3c-1.2,0.2-2.7-1.4-4.6-4.7
		c3.3-16.9,7.2-27.8,11.6-32.7l6.4-0.8l0.3,2.7l-6.9,27c4.3-3.4,15-17.9,32.2-43.3L937.587,213.7z"/>
</g>
</svg>