<!-- Generator: Adobe Illustrator 21.1.0, SVG Export Plug-In  -->
<svg version="1.1"
	 xmlns="http://www.w3.org/2000/svg" xmlns:xlink="http://www.w3.org/1999/xlink" xmlns:a="http://ns.adobe.com/AdobeSVGViewerExtensions/3.0/"
	 x="0px" y="0px" width="551.528px" height="339.184px" viewBox="0 0 551.528 339.184"
	 style="enable-background:new 0 0 551.528 339.184;" xml:space="preserve">
<style type="text/css">
	.st0{fill:#292929;}
</style>
<defs>
</defs>
<path class="st0" d="M547.485,142.515h-95.459h-97.144c4.866-11.155,7.3-17.893,7.3-20.215c0-0.898-0.524-1.421-1.572-1.572h-2.471
	l-1.572,0.898c-6.14,13.926-9.658,20.889-10.557,20.889h-49.189h-37.397c4.866-11.155,7.3-17.893,7.3-20.215
	c0-0.898-0.524-1.421-1.572-1.572h-2.471l-1.572,0.898c-6.14,13.926-9.658,20.889-10.557,20.889h-49.189
	c-2.695,0-4.341,0.825-4.941,2.471c0,1.049,0.524,1.572,1.572,1.572h51.885l-9.822,23.022h-0.622
	c-2.576,2.529-4.894,4.772-6.984,6.764h-8.543c3.308-8.117,4.971-13.079,4.971-14.85v-3.145c-0.825-1.572-1.611-2.358-2.358-2.358
	h-3.257c-4.043,0-9.697,4.829-16.958,14.487h-0.898l0.898-1.685v-1.572c0-0.972-0.562-1.534-1.685-1.685h-2.358
	c-2.96,3.119-5.284,6.129-6.985,9.031c-4.164,3.469-7.977,5.819-11.433,7.029c1.572-7.188,2.358-10.967,2.358-11.343
	c-0.898-5.391-2.771-8.086-5.615-8.086l-4.829,0.898c-2.713,2.06-4.959,4.31-6.762,6.74c-2.614,0.01-5.301,1.619-8.062,4.827
	c-10.253,8.079-19.994,15.4-29.225,21.966l-7.147-20.256h-54.28v56.024c-11.509,4.625-21.466,6.953-29.852,6.953h-5.728
	C16.433,233.182,7.3,220.005,7.3,199.79c0.525-5.54,1.873-13.364,4.043-23.472c4.717-14.449,12.241-30.322,22.573-47.617
	c14.898-23.284,34.028-46.755,57.388-70.415c20.215-18.193,38.033-31.108,53.457-38.745c21.113-10.332,39.68-15.498,55.703-15.498
	c4.941,0,8.423,1.909,10.444,5.728V14.6c0,3.369-2.92,10.632-8.76,21.787c-5.84,4.717-11.006,10.932-15.498,18.643
	c0.898,1.572,1.758,2.358,2.583,2.358h4.829c16.621-19.39,24.932-33.354,24.932-41.89v-4.043C218.021,3.818,213.491,0,205.405,0
	h-11.343c-15.947,0-34.814,5.654-56.602,16.958c-15.049,6.665-34.741,21.489-59.072,44.473C26.128,118.481,0,163.816,0,197.432
	v6.401c0,2.546,0.225,5.241,0.674,8.086c6.514,21.562,19.204,32.344,38.071,32.344c12.727-0.674,19.766-1.76,21.113-3.257
	c2.782-0.165,6.258-0.973,10.423-2.423v100.601h35.88V220.659c0.704-0.414,1.423-0.842,2.14-1.269l39.49,119.794h27.371
	l11.148-32.546c0.116,0.022,0.219,0.047,0.34,0.067c3.145,0,6.401-3.745,9.771-11.23c0-1.724-0.562-2.583-1.685-2.583
	c8.827-20.517,16.713-38.868,23.665-55.07v101.363h35.88V183.257c0.53,0.088,1.116,0.137,1.774,0.137h1.685
	c4.941,0,9.771-3.257,14.487-9.771h0.786v0.898c-1.123,2.097-1.685,5.054-1.685,8.872v0.898c0,3.145,1.646,4.717,4.941,4.717h2.471
	c2.72,0,6.069-1.093,10.038-3.261v93.378l-10.712,25.108c0,1.196,1.348,2.021,4.043,2.471c2.169,0,4.393-1.784,6.669-5.348v37.828
	h114.77v-33.12h-78.89v-33.12h70.609v-33.12h-70.609v-27.196c0.457-1.068,0.908-2.122,1.354-3.164h73.396v-33.12h-59.264
	c8.251-19.418,12.38-29.352,12.38-29.786h83.33l2.358,1.685h3.145c8.283,0,13.055-0.563,14.342-1.685h75.614l2.358,1.685h3.145
	c9.808,0,14.712-0.786,14.712-2.358v-2.583L547.485,142.515z M220.791,163.179h0.786c-2.298,5.164-4.174,9.544-5.643,13.165h-5.729
	C213.161,172.758,216.687,168.373,220.791,163.179z M178.901,169.468h0.898v3.145h-0.898V169.468z M178.115,173.511h0.786v3.145
	h-0.786V173.511z M174.858,183.955c-0.674,2.246-2.021,3.857-4.043,4.829h-0.786v-2.358l0.786-8.086
	C173.21,182.084,174.558,183.955,174.858,183.955z M162.511,282.604h-0.46l-27.992-79.338c2.179-1.42,4.393-2.873,6.658-4.374
	c10.286-8.245,18.118-14.441,23.546-18.63c-0.417,1.971-0.636,4.023-0.636,6.164v0.898c0,2.771,1.049,4.604,3.145,5.503h7.3
	c4.341-2.769,6.514-5.166,6.514-7.188c3.95,0,7.775-0.908,11.477-2.705c-0.158,0.952-0.247,1.892-0.247,2.817v0.898
	c0,1.123,0.488,1.685,1.46,1.685h2.698L162.511,282.604z M205.567,250.418l12.374-36.124h0.46v6.043L205.567,250.418z
	 M259.199,177.666h-0.674v-0.786c2.246-5.84,5.464-9.883,9.658-12.129h1.685l1.46,0.786
	C271.328,166.811,267.285,170.854,259.199,177.666z M335.192,170.336c-0.83,0.123-1.569,0.391-2.209,0.817
	c-2.231,1.872-4.335,3.591-6.34,5.191h-21.835c4.168-7.864,8.692-11.817,13.576-11.817c0,1.499-0.524,3.145-1.572,4.941
	c0,1.123,0.522,1.685,1.572,1.685h4.043c1.421,0,2.471-1.909,3.145-5.728c0-2.92-2.397-4.829-7.188-5.728
	c-7.011,0-13.015,3.731-18.014,11.182c-2.814,1.982-5.48,3.817-7.959,5.465h-3.633v2.366c-3.501,2.24-6.633,4.112-9.364,5.582
	h-0.674c0-4.641,3.218-14.375,9.658-29.199v-0.786c0-0.898-0.524-1.46-1.572-1.685h-2.471c-0.825,0-3.257,2.471-7.3,7.412
	c-1.423,0-3.332-0.298-5.728-0.898c-2.471,0-5.166,0.786-8.086,2.358c-7.123,4.486-11.105,9.435-11.953,14.85h-6.604
	c8.251-19.418,12.38-29.352,12.38-29.786h36.387h51.885L335.192,170.336z"/>
</svg>